<svg width="24.000000" height="24.000000" viewBox="0 0 24 24" fill="none" xmlns="http://www.w3.org/2000/svg" xmlns:xlink="http://www.w3.org/1999/xlink">
	<desc>
			Created with Pixso.
	</desc>
	<defs>
		<clipPath id="clip2_3828">
			<rect id="LinkedIn" width="24.000000" height="24.000000" fill="white" fill-opacity="0"/>
		</clipPath>
	</defs>
	<g clip-path="url(#clip2_3828)">
		<path id="Subtract" d="M3.44775 22.9979L20.5562 22.9979C21.9058 22.9979 23 21.9037 23 20.5539L23 3.44585C23 2.09605 21.9058 1.00183 20.5562 1.00183L3.44775 1.00183C2.09814 1.00183 1.00391 2.09605 1.00391 3.44585L1.00391 20.5539C1.00391 21.9037 2.09814 22.9979 3.44775 22.9979ZM4.05762 6.01117C4.05762 7.09041 4.92578 7.96547 5.99756 7.96547C7.06885 7.96547 7.93652 7.09041 7.93652 6.01117C7.93652 4.93195 7.06885 4.05688 5.99756 4.05688C4.92578 4.05688 4.05762 4.93195 4.05762 6.01117ZM16.6797 19.9429L19.9438 19.9429L19.9438 13.2376C19.9438 10.4005 18.3354 9.02867 16.0894 9.02867C13.8418 9.02867 12.896 10.7788 12.896 10.7788L12.896 9.35223L9.75 9.35223L9.75 19.9429L12.896 19.9429L12.896 14.3835C12.896 12.8938 13.5815 12.0074 14.894 12.0074C16.1006 12.0074 16.6797 12.8592 16.6797 14.3835L16.6797 19.9429ZM7.65332 19.9429L4.37305 19.9429L4.37305 9.35223L7.65332 9.35223L7.65332 19.9429Z" clip-rule="evenodd" fill="#FFFFFF" fill-opacity="1.000000" fill-rule="evenodd"/>
	</g>
</svg>
