<svg width="24.000000" height="24.000000" viewBox="0 0 24 24" fill="none" xmlns="http://www.w3.org/2000/svg" xmlns:xlink="http://www.w3.org/1999/xlink">
	<desc>
			Created with Pixso.
	</desc>
	<defs>
		<clipPath id="clip2_3841">
			<rect id="Sun" width="24.000000" height="24.000000" fill="white" fill-opacity="0"/>
		</clipPath>
	</defs>
	<rect id="Sun" width="24.000000" height="24.000000" fill="#FFFFFF" fill-opacity="0"/>
	<g clip-path="url(#clip2_3841)">
		<path id="Vector" d="M12 17C9.23 17 7 14.76 7 12C7 9.23 9.23 7 12 7C14.76 7 17 9.23 17 12C17 14.76 14.76 17 12 17Z" stroke="#FFFFFF" stroke-opacity="1.000000" stroke-width="2.000000" stroke-linejoin="round"/>
		<path id="Vector" d="M12 1L12 3M12 21L12 23M4.22 4.21L5.64 5.64M18.35 18.36L19.77 19.78M1 12L3 12M21 12L23 12M4.22 19.78L5.64 18.36M18.35 5.64L19.77 4.21" stroke="#FFFFFF" stroke-opacity="1.000000" stroke-width="2.000000" stroke-linejoin="round"/>
	</g>
</svg>
